<?xml version="1.0" standalone="no"?>
<!DOCTYPE svg PUBLIC "-//W3C//DTD SVG 20010904//EN"
 "http://www.w3.org/TR/2001/REC-SVG-20010904/DTD/svg10.dtd">
<svg version="1.0" xmlns="http://www.w3.org/2000/svg"
 width="800.000000pt" height="800.000000pt" viewBox="0 0 800.000000 800.000000"
 preserveAspectRatio="xMidYMid meet">
<metadata>
Created by potrace 1.14, written by Peter Selinger 2001-2017
</metadata>
<g transform="translate(0.000000,800.000000) scale(0.100000,-0.100000)"
fill="#000000" stroke="none">
<path d="M3779 7796 c-2 -2 -48 -7 -101 -10 -53 -4 -105 -8 -115 -10 -10 -2
-43 -7 -73 -11 -100 -13 -124 -16 -225 -36 -117 -23 -102 -20 -230 -53 -136
-35 -287 -84 -430 -140 -115 -46 -391 -177 -485 -232 -298 -172 -556 -370
-795 -609 -83 -82 -173 -177 -200 -210 -28 -33 -56 -66 -63 -74 -18 -19 -119
-152 -182 -241 -226 -316 -450 -793 -546 -1162 -9 -35 -18 -70 -20 -78 -23
-89 -66 -317 -80 -420 -3 -25 -7 -56 -9 -69 -26 -162 -26 -722 -1 -881 3 -14
7 -47 11 -75 7 -63 23 -157 35 -215 5 -25 12 -57 14 -71 14 -89 102 -388 159
-539 76 -203 212 -481 313 -642 103 -162 181 -273 283 -398 47 -58 90 -111 96
-118 25 -32 306 -313 360 -361 279 -246 653 -483 991 -627 189 -81 468 -176
579 -198 11 -2 47 -11 80 -19 33 -9 101 -23 150 -32 99 -19 103 -19 190 -30
33 -4 69 -9 79 -11 134 -25 733 -25 873 0 10 2 38 6 63 9 25 4 65 9 90 12 38
5 205 37 262 50 10 2 71 18 135 35 771 205 1486 673 1982 1300 50 63 95 120
100 126 5 6 45 64 88 130 243 362 418 753 523 1166 34 133 70 319 86 438 3 25
7 56 9 69 26 162 26 722 1 881 -3 14 -7 48 -11 75 -28 233 -133 652 -205 820
-5 11 -32 76 -61 145 -188 450 -452 843 -804 1195 -164 164 -231 224 -375 334
-284 216 -574 384 -860 500 -58 23 -114 46 -125 51 -50 22 -346 114 -397 124
-13 2 -41 9 -63 14 -55 15 -176 39 -260 52 -38 6 -80 13 -93 15 -13 2 -53 7
-90 11 -37 3 -78 8 -92 10 -32 6 -556 15 -561 10z m536 -409 c11 -2 52 -8 90
-12 39 -4 79 -9 90 -11 10 -2 37 -6 60 -9 22 -3 47 -8 55 -10 8 -2 31 -7 50
-10 19 -3 42 -8 50 -10 8 -2 29 -7 45 -9 85 -15 423 -120 500 -156 11 -5 49
-21 85 -36 237 -96 530 -272 778 -465 135 -106 422 -391 534 -532 329 -414
548 -871 667 -1392 28 -122 33 -152 46 -257 3 -24 8 -52 10 -63 26 -130 27
-657 1 -825 -5 -31 -18 -120 -21 -140 -47 -342 -210 -801 -408 -1145 -186
-325 -469 -663 -757 -906 -437 -367 -1001 -638 -1530 -734 -14 -3 -36 -7 -50
-10 -44 -8 -84 -15 -130 -20 -25 -3 -54 -8 -65 -10 -132 -27 -697 -27 -830 0
-11 2 -40 7 -65 10 -47 5 -87 12 -130 20 -14 3 -38 8 -55 11 -16 2 -37 7 -45
9 -8 2 -31 7 -50 10 -51 9 -293 80 -385 113 -364 132 -683 312 -995 560 -133
106 -419 396 -521 527 -266 342 -464 713 -583 1092 -28 91 -90 343 -101 413
-4 25 -9 54 -11 65 -2 11 -6 40 -9 65 -3 25 -8 54 -10 65 -27 132 -27 662 -1
825 3 14 7 45 10 70 3 25 8 54 10 65 2 11 7 40 11 65 50 322 229 807 402 1092
22 35 42 71 45 78 12 28 155 231 239 338 109 139 404 434 542 542 328 256 657
435 1037 564 115 39 324 95 410 110 14 2 43 7 65 11 22 4 49 9 60 11 11 2 40
7 65 10 25 3 56 7 70 10 14 2 63 6 110 10 47 4 87 8 89 10 6 5 501 -3 526 -9z"/>
<path d="M3779 7036 c-2 -2 -40 -6 -84 -10 -44 -4 -105 -11 -135 -16 -30 -5
-71 -12 -90 -15 -154 -25 -363 -82 -540 -147 -97 -36 -398 -178 -465 -221
-286 -179 -413 -277 -610 -472 -70 -69 -133 -139 -232 -258 -150 -179 -336
-494 -436 -737 -69 -168 -154 -453 -172 -577 -4 -21 -8 -45 -10 -53 -2 -8 -7
-37 -11 -65 -3 -27 -8 -59 -10 -70 -27 -142 -26 -620 2 -805 13 -87 36 -215
39 -220 2 -3 6 -25 10 -50 4 -25 9 -48 11 -52 3 -4 7 -18 9 -30 34 -176 197
-573 313 -763 17 -27 47 -78 68 -112 86 -144 254 -352 414 -513 367 -369 856
-654 1340 -782 19 -5 51 -13 70 -19 51 -14 218 -47 275 -55 28 -3 59 -8 70
-10 136 -27 615 -26 805 1 172 25 278 48 495 110 144 41 461 178 585 254 19
11 42 24 50 28 48 21 274 177 359 248 161 132 328 294 410 395 20 25 42 52 50
60 43 44 161 214 267 381 37 60 182 358 210 434 80 219 145 458 169 630 3 23
7 51 10 63 20 106 28 594 11 732 -9 79 -46 301 -51 310 -2 3 -6 25 -10 50 -4
25 -9 48 -12 52 -2 5 -6 19 -9 32 -9 49 -73 246 -117 359 -49 124 -164 358
-218 442 -96 150 -128 197 -183 270 -160 212 -397 448 -591 590 -22 17 -42 33
-45 36 -8 10 -210 141 -265 172 -201 113 -504 242 -674 288 -129 35 -143 39
-241 58 -85 17 -125 24 -275 46 -45 7 -549 17 -556 11z m13 -1525 c35 -16 155
-70 268 -121 113 -50 238 -107 278 -126 41 -19 75 -34 77 -34 2 0 52 -22 110
-50 58 -27 108 -50 111 -50 2 0 37 -15 77 -34 40 -18 92 -43 117 -54 25 -11
167 -74 315 -142 347 -157 317 -143 415 -187 47 -22 131 -59 187 -84 57 -24
103 -47 103 -50 0 -3 -61 -67 -135 -142 l-135 -137 -66 31 c-36 16 -145 68
-241 115 -97 46 -178 84 -182 84 -3 0 -142 -136 -307 -301 l-302 -302 43 -86
c23 -47 61 -126 85 -176 23 -49 58 -120 76 -157 l33 -66 -135 -136 c-75 -75
-139 -136 -142 -136 -4 0 -63 125 -132 278 -68 152 -142 315 -163 361 -21 46
-65 143 -97 215 -32 72 -71 160 -88 196 -16 36 -79 175 -140 310 -100 222
-159 352 -197 435 -8 17 -46 100 -84 185 l-70 155 117 118 c64 64 122 117 129
117 6 0 40 -13 75 -29z m-527 -746 c25 -82 59 -193 75 -245 15 -52 47 -153 69
-225 22 -71 76 -247 120 -390 43 -143 86 -280 95 -305 9 -25 16 -52 16 -60 0
-8 131 -146 291 -306 l290 -290 -132 -132 c-72 -73 -134 -132 -138 -132 -3 0
-134 128 -291 285 -157 157 -289 285 -295 285 -5 0 -66 18 -135 40 -106 33
-752 232 -945 290 -291 88 -400 122 -404 126 -3 3 61 70 141 151 l146 146 63
-21 c35 -11 156 -53 269 -92 113 -39 230 -80 260 -90 30 -10 147 -51 260 -90
113 -40 215 -75 227 -77 l23 -5 -19 53 c-54 153 -174 499 -186 534 -7 22 -49
146 -94 275 l-82 234 148 148 148 148 17 -52 c9 -29 37 -120 63 -203z"/>
<path d="M3954 5023 c19 -38 58 -120 89 -183 30 -63 99 -205 152 -315 53 -110
108 -224 121 -253 l25 -53 224 224 c124 124 225 227 225 230 0 3 -37 24 -82
45 -89 43 -256 123 -572 276 -109 53 -202 96 -207 96 -4 0 7 -30 25 -67z"/>
</g>
</svg>
